<svg width="2479" height="706" viewBox="0 0 2479 706" fill="none" xmlns="http://www.w3.org/2000/svg">
<path d="M238.677 705.193L142.168 705.192C127.346 705.191 125.235 683.788 139.772 680.893V680.893C153.982 678.062 152.405 657.263 137.932 656.606L25.4042 651.5C-6.38176 650.057 -8.18334 603.702 23.3948 599.797L81.8934 592.563C107.282 589.423 107.849 552.821 82.5696 548.897V548.897C57.3588 544.983 57.8259 508.512 83.1286 505.246L152.915 496.236C173.943 493.521 176.721 464.203 156.624 457.443V457.443C137.966 451.168 138.663 424.49 157.654 419.309L171.072 415.649C188.011 411.027 187.174 386.724 169.958 383.278V383.278C150.411 379.367 153.022 350.645 172.955 350.324L311.633 348.087C339.025 347.645 341.339 307.63 314.18 304.034V304.034C287.022 300.437 289.336 260.423 316.728 259.981L414.165 258.409C444.57 257.918 449.6 214.594 420.118 207.15L391.807 200.001C372.846 195.213 372.941 168.24 391.934 163.585V163.585C412.394 158.571 410.332 128.838 389.376 126.696L125.7 99.7472C104.829 97.6141 102.775 68.0015 123.152 63.0078L137.646 59.4556C152.878 55.7228 152.903 34.0752 137.681 30.3061V30.3061C120.479 26.0468 123.567 0.725215 141.289 0.7252L2477.88 0.72329C2478.03 0.72329 2478.16 0.8463 2478.16 0.998009V0.998009L2478.16 101.998L2478.16 147.946L2478.16 197.449L2478.16 232.449L2478.16 283.949L2478.16 317.569L2478.16 344.449L2478.16 405.594L2478.16 445.57L2478.16 493.618L2478.16 535.947L2478.16 581.644L2478.16 690.984L2478.16 705.189L238.677 705.193Z" fill="url(#paint0_linear_233_3)"/>
<defs>
<linearGradient id="paint0_linear_233_3" x1="-281.579" y1="366.681" x2="1512.51" y2="368.824" gradientUnits="userSpaceOnUse">
<stop stop-color="#E32600"/>
<stop offset="1" stop-color="#FFA200"/>
</linearGradient>
</defs>
</svg>
