<svg width="1630" height="515" viewBox="0 0 1630 515" fill="none" xmlns="http://www.w3.org/2000/svg">
<path d="M1489.6 0.213149L1525.35 0.213218C1535.12 0.213237 1537.64 13.7344 1528.54 17.2582C1519.64 20.6976 1521.78 33.84 1531.3 34.2933L1600.61 37.5927C1622.02 38.6119 1624.35 69.3583 1603.34 73.5932C1583.01 77.6919 1584.29 107.174 1604.9 109.5L1612.3 110.335C1634.68 112.859 1634.56 145.413 1612.17 147.776L1586.51 150.484C1569.56 152.272 1568.43 176.52 1585.14 179.879C1601.35 183.139 1600.95 206.451 1584.64 209.156L1554.12 214.217C1541.05 216.385 1540.75 235.064 1553.74 237.657C1567.86 240.475 1565.8 261.258 1551.41 261.258L1443.52 261.258C1433.1 261.258 1430.36 275.665 1440.06 279.487C1448.53 282.821 1447.85 295.015 1439.07 297.388L1381.45 312.958C1365.14 317.365 1358.59 336.961 1368.96 350.296C1380.07 364.574 1371.68 385.526 1353.79 388.194L1351.18 388.584C1322.39 392.876 1322.62 434.469 1351.46 438.442L1360.92 439.747L1428.15 455.33C1458.4 462.34 1459.46 505.014 1429.6 513.518C1426.93 514.28 1424.16 514.667 1421.38 514.667L91.238 514.821C77.8655 514.823 76.3849 495.325 89.6045 493.31C101.858 491.441 101.851 473.781 89.5962 471.92L62.6166 467.824C45.2962 465.195 45.8126 440.058 63.2264 438.145L82.5653 436.02C103.367 433.735 103.364 403.487 82.5625 401.202L17.6535 394.071C2.75974 392.435 1.31825 371.381 15.7301 367.284C28.7901 363.572 29.0168 345.004 15.9606 341.276C1.7088 337.207 3.49058 316.468 18.2275 314.892L55.8544 310.868C80.7307 308.207 80.6955 271.998 55.8139 269.382L17.9385 265.399C3.11183 263.84 1.30892 242.97 15.6488 238.893C28.7655 235.165 28.775 216.578 15.662 212.834L11.0882 211.528C-4.09769 207.192 -2.99612 185.314 12.5483 182.528L82.2761 170.029C98.6725 167.09 97.6333 143.238 81.0431 141.734C63.9914 140.188 63.5876 115.42 80.5799 113.321L110.653 109.608C131.852 106.99 130.832 75.9288 109.508 74.7032L40.8673 70.7582C26.1734 69.9137 24.4964 48.9082 38.8705 45.7452L46.8575 43.9877C58.2617 41.4782 58.2363 25.2086 46.8243 22.733C34.0927 19.9712 36.0937 1.2333 49.1211 1.22416L1489.6 0.213149Z" fill="url(#paint0_linear_201_4)" fill-opacity="0.85"/>
<defs>
<linearGradient id="paint0_linear_201_4" x1="1783.84" y1="256.778" x2="220.835" y2="257.111" gradientUnits="userSpaceOnUse">
<stop stop-color="#FFA200"/>
<stop offset="1" stop-color="#E32600"/>
</linearGradient>
</defs>
</svg>
